<svg width="23" height="16" viewBox="0 0 23 16" fill="none" xmlns="http://www.w3.org/2000/svg">
<path d="M1.5603 14.5278C1.5603 13.2206 2.11139 11.9669 3.09233 11.0426C4.07327 10.1182 5.40371 9.59893 6.79097 9.59893C8.17823 9.59893 9.50867 10.1182 10.4896 11.0426C11.4706 11.9669 12.0216 13.2206 12.0216 14.5278M9.77992 6.07829C9.77992 6.82528 9.46502 7.54167 8.90448 8.06987C8.34394 8.59807 7.58369 8.89481 6.79097 8.89481C5.99825 8.89481 5.238 8.59807 4.67746 8.06987C4.11692 7.54167 3.80202 6.82528 3.80202 6.07829C3.80202 5.33131 4.11692 4.61492 4.67746 4.08672C5.238 3.55852 5.99825 3.26178 6.79097 3.26178C7.58369 3.26178 8.34394 3.55852 8.90448 4.08672C9.46502 4.61492 9.77992 5.33131 9.77992 6.07829Z" stroke="white" stroke-width="1.5" stroke-linecap="round" stroke-linejoin="round"/>
<path d="M21.489 12.8772C21.489 11.57 20.9379 10.3163 19.957 9.39194C18.976 8.46759 17.6456 7.9483 16.2583 7.9483C14.8711 7.9483 13.5406 8.46759 12.5597 9.39194C12.0752 9.84848 11.6956 10.3854 11.4354 10.9693M19.2473 4.42766C19.2473 5.17464 18.9324 5.89104 18.3719 6.41923C17.8113 6.94743 17.0511 7.24417 16.2583 7.24417C15.4656 7.24417 14.7054 6.94743 14.1448 6.41923C13.5843 5.89104 13.2694 5.17464 13.2694 4.42766C13.2694 3.68067 13.5843 2.96428 14.1448 2.43608C14.7054 1.90788 15.4656 1.61115 16.2583 1.61115C17.0511 1.61115 17.8113 1.90788 18.3719 2.43608C18.9324 2.96428 19.2473 3.68067 19.2473 4.42766Z" stroke="white" stroke-width="1.5" stroke-linecap="round" stroke-linejoin="round"/>
</svg>
